HIERARCHY
ROOT Hips
{
 OFFSET 0.000000 0.000000 0.000000
 CHANNELS 6 Xposition Yposition Zposition Yrotation Xrotation Zrotation
 JOINT Chest
 {
  OFFSET 0.000000 9.585900 0.002600
  CHANNELS 3 Yrotation Xrotation Zrotation
  JOINT Chest2
  {
   OFFSET 0.000000 9.601200 -0.005300
   CHANNELS 3 Yrotation Xrotation Zrotation
   JOINT Chest3
   {
    OFFSET 0.000000 9.561800 0.000000
    CHANNELS 3 Yrotation Xrotation Zrotation
    JOINT Chest4
    {
     OFFSET 0.000000 9.552100 0.000000
     CHANNELS 3 Yrotation Xrotation Zrotation
     JOINT Neck
     {
      OFFSET 0.000000 14.453000 0.000000
      CHANNELS 3 Yrotation Xrotation Zrotation
      JOINT Head
      {
       OFFSET 0.000000 8.936500 -0.011300
       CHANNELS 3 Yrotation Xrotation Zrotation
       End Site
       {
        OFFSET 0.000000 17.073600 -0.006000
       }
      }
     }
     JOINT RightCollar
     {
      OFFSET -2.921100 9.558500 0.000000
      CHANNELS 3 Yrotation Xrotation Zrotation
      JOINT RightShoulder
      {
       OFFSET -13.519700 0.000000 0.000000
       CHANNELS 3 Yrotation Xrotation Zrotation
       JOINT RightElbow
       {
        OFFSET 0.000000 -29.696600 0.000000
        CHANNELS 3 Yrotation Xrotation Zrotation
        JOINT RightWrist
        {
         OFFSET 0.000000 -24.004700 0.000000
         CHANNELS 3 Yrotation Xrotation Zrotation
         End Site
         {
          OFFSET 0.000000 -17.728500 0.000000
         }
        }
       }
      }
     }
     JOINT LeftCollar
     {
      OFFSET 2.921100 9.558500 0.000000
      CHANNELS 3 Yrotation Xrotation Zrotation
      JOINT LeftShoulder
      {
       OFFSET 13.519700 0.000000 0.000000
       CHANNELS 3 Yrotation Xrotation Zrotation
       JOINT LeftElbow
       {
        OFFSET 0.000000 -29.696600 0.000000
        CHANNELS 3 Yrotation Xrotation Zrotation
        JOINT LeftWrist
        {
         OFFSET 0.000000 -24.004700 0.000000
         CHANNELS 3 Yrotation Xrotation Zrotation
         End Site
         {
          OFFSET 0.000000 -17.728500 0.000000
         }
        }
       }
      }
     }
    }
   }
  }
 }
 JOINT RightHip
 {
  OFFSET -7.771700 -0.012900 -0.001300
  CHANNELS 3 Yrotation Xrotation Zrotation
  JOINT RightKnee
  {
   OFFSET 0.000000 -40.869800 0.001200
   CHANNELS 3 Yrotation Xrotation Zrotation
   JOINT RightAnkle
   {
    OFFSET 0.000000 -39.717900 0.002100
    CHANNELS 3 Yrotation Xrotation Zrotation
    JOINT RightToe
    {
     OFFSET 0.000000 -4.965400 11.033500
     CHANNELS 3 Yrotation Xrotation Zrotation
     End Site
     {
      OFFSET 0.000000 -1.423100 5.872300
     }
    }
   }
  }
 }
 JOINT LeftHip
 {
  OFFSET 7.771700 -0.012900 -0.001300
  CHANNELS 3 Yrotation Xrotation Zrotation
  JOINT LeftKnee
  {
   OFFSET 0.000000 -40.869800 0.001200
   CHANNELS 3 Yrotation Xrotation Zrotation
   JOINT LeftAnkle
   {
    OFFSET 0.000000 -39.717900 0.002100
    CHANNELS 3 Yrotation Xrotation Zrotation
    JOINT LeftToe
    {
     OFFSET 0.000000 -4.965400 11.033500
     CHANNELS 3 Yrotation Xrotation Zrotation
     End Site
     {
      OFFSET 0.000000 -1.423100 5.872300
     }
    }
   }
  }
 }
}
MOTION
Frames: 8
Frame Time: 0.008333
-81.567463 50.445769 -8.261783 167.586670 -5.681698 -0.329107 2.497103 6.901357 -0.882573 0.130270 0.317572 -0.073841 0.227508 0.555998 -0.128733 2.615586 6.588620 -1.383139 6.856745 17.588763 -2.435134 13.434889 -2.560389 -6.739554 5.855113 -1.724972 -3.333761 -7.520424 -27.897485 -32.983609 -91.279028 -64.402857 123.898793 -5.305197 -5.695925 -23.304777 -8.550283 -7.205866 3.402796 15.217420 -27.796335 11.468519 106.089095 -53.873571 -145.272059 3.679575 0.789293 -7.832664 -5.458861 -74.480952 -2.952633 -133.460467 80.644255 -131.903041 -4.220191 -17.512753 0.982940 -0.202655 0.418388 0.053823 -13.505497 -78.252604 27.327887 115.512719 77.659100 112.042904 -14.925693 -23.063002 -0.588858 -0.073390 -0.802555 -0.086299
-81.562998 50.427028 -8.290189 167.740364 -5.777813 -0.325516 2.418203 6.915171 -0.928242 0.127130 0.317121 -0.075917 0.222114 0.555275 -0.132392 2.553038 6.590759 -1.432193 6.762764 17.590991 -2.414074 13.255109 -2.570157 -6.670624 5.961755 -1.883324 -3.323865 -7.012580 -27.976781 -33.003310 -92.871677 -64.270170 124.882420 -5.476523 -6.085160 -23.748857 -8.567125 -7.189773 3.392948 14.900644 -27.965075 11.658080 105.845315 -53.840443 -144.989671 3.869055 0.610253 -7.584299 -5.355357 -74.406142 -3.154888 -133.768730 80.549022 -132.240114 -4.238699 -17.574342 1.060938 -0.206425 0.413857 0.026421 -13.814064 -78.135044 27.387621 115.438063 77.631900 111.988617 -14.929640 -23.063071 -0.649158 -0.023621 -0.805275 -0.100231
-81.560434 50.407648 -8.317358 167.898996 -5.869097 -0.309661 2.346127 6.927156 -0.980821 0.124614 0.317067 -0.077829 0.217827 0.555171 -0.135740 2.484276 6.632522 -1.433953 6.648724 17.564222 -2.448296 13.037482 -2.574570 -6.604192 6.058867 -2.057088 -3.358767 -6.495814 -28.019899 -32.997264 -94.494211 -64.201914 125.884726 -5.589477 -6.439115 -24.133093 -8.564190 -7.190993 3.335314 14.597758 -28.084907 11.840290 105.608662 -53.829134 -144.725810 4.043868 0.424815 -7.353949 -5.197874 -74.332885 -3.418952 -134.046761 80.455430 -132.543722 -4.239951 -17.650767 1.111752 -0.210723 0.425535 -0.008866 -14.053538 -78.029252 27.355572 115.318970 77.590027 111.896326 -14.923604 -23.049579 -0.696670 -0.008500 -0.795341 -0.099709
-81.559054 50.387985 -8.342886 168.052772 -5.956239 -0.287006 2.288419 6.937245 -1.032963 0.122723 0.317296 -0.079543 0.214552 0.555485 -0.138741 2.449004 6.618802 -1.494012 6.517928 17.592795 -2.411049 12.786196 -2.568550 -6.539632 6.106402 -2.156131 -3.319257 -6.004762 -28.046314 -32.946597 -96.149262 -64.209435 126.941099 -5.635807 -6.743580 -24.467800 -8.589770 -7.099217 3.324787 14.309639 -28.158121 12.009311 105.364036 -53.849548 -144.464201 4.212922 0.242691 -7.151658 -5.002809 -74.260911 -3.717360 -134.288490 80.367512 -132.807546 -4.230396 -17.732449 1.125296 -0.244683 0.444621 0.027339 -14.253769 -77.934214 27.270790 115.168282 77.541081 111.793127 -14.918002 -23.021035 -0.751306 0.008416 -0.801878 -0.118406
-81.557382 50.368240 -8.365403 168.195853 -6.035376 -0.268843 2.247379 6.941685 -1.074676 0.121512 0.317715 -0.081094 0.212441 0.556143 -0.141498 2.433329 6.605597 -1.546608 6.418006 17.648608 -2.340811 12.455265 -2.567318 -6.500631 6.123927 -2.226351 -3.277948 -5.562949 -28.066151 -32.839854 -97.853088 -64.299885 128.087405 -5.623877 -6.989865 -24.756031 -8.611161 -6.980541 3.306171 14.030601 -28.187700 12.157633 105.089913 -53.902810 -144.190233 4.373416 0.076027 -6.980771 -4.806442 -74.193723 -4.006537 -134.512554 80.290019 -133.050900 -4.230060 -17.811237 1.179045 -0.278620 0.467329 0.041207 -14.474641 -77.851060 27.201671 114.977157 77.479160 111.667125 -14.896315 -22.977038 -0.818179 0.028547 -0.814261 -0.137467
-81.554974 50.348646 -8.385008 168.329499 -6.110151 -0.259080 2.220049 6.944305 -1.104484 0.121016 0.318254 -0.082567 0.211530 0.557072 -0.144098 2.418635 6.610677 -1.576264 6.227684 17.658720 -2.353489 12.180415 -2.539413 -6.421786 6.135890 -2.283977 -3.253873 -5.185969 -28.082427 -32.668472 -99.618551 -64.485940 129.348121 -5.570918 -7.180833 -25.001899 -8.601402 -6.859914 3.268508 13.752749 -28.169782 12.283258 104.773113 -53.983949 -143.893708 4.517443 -0.066269 -6.837446 -4.624670 -74.126748 -4.270726 -134.724177 80.222532 -133.278452 -4.227099 -17.889030 1.233323 -0.315153 0.494787 0.027353 -14.740170 -77.773683 27.173331 114.728641 77.394689 111.499189 -14.868743 -22.918388 -0.896910 0.078271 -0.850449 -0.178156
-81.548706 50.328861 -8.396294 168.425889 -6.155245 -0.280488 2.238636 6.917652 -1.096660 0.121178 0.318982 -0.083845 0.211706 0.558291 -0.146329 2.415985 6.616099 -1.599933 6.029339 17.671691 -2.368198 11.884386 -2.508923 -6.342317 6.136126 -2.314425 -3.226211 -4.878422 -28.089267 -32.430902 -101.461429 -64.778896 130.739523 -5.486128 -7.327492 -25.213493 -8.573361 -6.724913 3.227727 13.471061 -28.096760 12.386762 104.408026 -54.091091 -143.567639 4.640798 -0.178322 -6.713252 -4.530873 -74.083004 -4.411926 -134.831193 80.173054 -133.366418 -4.249028 -17.947550 1.263233 -0.293485 0.521648 -0.019798 -15.184816 -77.719048 27.355010 114.427388 77.281559 111.289742 -14.839005 -22.851820 -0.987805 0.114140 -0.889483 -0.227201
-81.545505 50.309602 -8.407004 168.559458 -6.210044 -0.291673 2.223062 6.901967 -1.096798 0.121846 0.319829 -0.084776 0.212875 0.559705 -0.147978 2.424042 6.621687 -1.615850 5.848598 17.697426 -2.366585 11.549290 -2.480785 -6.278477 6.069592 -2.291074 -3.186134 -4.571122 -28.109446 -32.140163 -103.400248 -65.175918 132.270568 -5.372718 -7.440546 -25.393413 -8.522328 -6.581280 3.181832 13.182939 -27.968569 12.465160 103.987881 -54.232084 -143.200727 4.744183 -0.262912 -6.601201 -4.526755 -74.031610 -4.510003 -135.045549 80.124767 -133.635263 -4.146978 -18.076004 1.333092 -0.431677 0.600570 -0.072063 -15.635776 -77.660728 27.495286 114.081744 77.139968 111.038390 -14.829666 -22.693826 -1.090174 0.145519 -0.988982 -0.245646
